<?xml version="1.0" encoding="UTF-8"?>
<svg width="177px" height="177px" viewBox="0 0 177 177" version="1.1" xmlns="http://www.w3.org/2000/svg" xmlns:xlink="http://www.w3.org/1999/xlink">
    <!-- Generator: Sketch 55.2 (78181) - https://sketchapp.com -->
    <title>Group 48</title>
    <desc>Created with Sketch.</desc>
    <g id="Designs" stroke="none" stroke-width="1" fill="none" fill-rule="evenodd">
        <g id="Group-48">
            <path d="M47.8725496,144.489796 C30.7330283,131.891865 19.5775756,111.647195 19.5775756,88.769822 C19.5775756,50.5441522 50.5760809,19.5587498 88.8250886,19.5587498 C118.291683,19.5587498 149.421572,29.2726079 167.876289,48.398145 C153.159922,19.6897832 123.318138,0 88.8250886,0 C39.7619558,0 0,39.740577 0,88.769822 C0,90.4170998 0.154410102,92.0149058 0.237033052,93.6461386 C2.54370327,118.858046 22.6942216,135.837576 47.8725496,144.489796" id="Fill-22" fill="#1F2171"></path>
            <path d="M133.062149,33.0561352 C119.263057,27.535121 103.913973,25.2857143 88.3600595,25.2857143 C66.7287917,25.2857143 47.6705735,36.2411801 36.4224772,52.9078165 C34.3314501,55.9894605 32.3273229,59.1998977 31.0143208,62.7403672 C46.517793,56.2510716 89.1611673,79.3345574 112.727314,59.5876187 C130.1195,44.9937468 164.785741,62.4505827 156.550625,101.143528 C149.74664,133.056051 122.193964,157.373805 88.3600595,157.373805 C58.8141185,157.373805 27.6197963,147.633824 9.12371134,128.449014 C23.8776725,157.238304 53.7875066,177 88.3600595,177 C132.266197,177 168.50614,145.180047 176.084077,103.406799 C179.831632,82.6670798 171.767599,61.0982548 157.58935,48.2068671 C150.310371,41.594357 142.012291,36.6370852 133.062149,33.0561352 Z" id="Fill-24" fill="#00B0AF"></path>
            <path d="M54.742268,54.1836735 C59.3826129,47.1564096 95.4150318,33.9116697 117.197562,39.1076935 C118.177385,39.3289172 118.786574,40.3394448 118.561498,41.3445101 C118.33103,42.3427476 117.356598,42.9709134 116.370037,42.7428619 C95.6279782,37.7967388 61.0861841,50.0541659 54.742268,54.1836735" id="Fill-26" fill="#FFFFFF"></path>
        </g>
    </g>
</svg>